<svg width="43" height="34" viewBox="0 0 43 34" fill="none" xmlns="http://www.w3.org/2000/svg">
<g clip-path="url(#clip0_56_13065)">
<path d="M31.1104 6.373H27.6125V12.745H35.0929L33.0751 7.70714C32.7565 6.904 31.9799 6.373 31.1104 6.373ZM24.4265 12.745V6.373H19.0368C18.393 6.373 17.7823 6.66505 17.3774 7.1695L12.917 12.745H24.4265ZM7.42119 12.8114L14.0587 4.5145C15.2667 3.00115 17.0987 2.125 19.0368 2.125H31.1104C33.719 2.125 36.062 3.71136 37.0244 6.12741L39.7856 13.0371C41.3654 13.661 42.4805 15.1942 42.4805 16.993V24.427C42.4805 25.6018 41.5313 26.551 40.3565 26.551H38.1462C37.6417 29.5644 35.0199 31.861 31.8605 31.861C28.701 31.861 26.0792 29.5644 25.5748 26.551H16.9062C16.4017 29.5644 13.7799 31.861 10.6205 31.861C7.46102 31.861 4.83921 29.5644 4.33475 26.551H2.12447C0.949631 26.551 0.000469208 25.6018 0.000469208 24.427V21.241C0.000469208 16.9134 3.23957 13.3424 7.42119 12.8114ZM13.6273 24.427C13.492 24.0272 13.2787 23.6582 12.9997 23.3415C12.7207 23.0248 12.3815 22.7667 12.0019 22.5821C11.6223 22.3976 11.2098 22.2904 10.7883 22.2667C10.3669 22.2429 9.94499 22.3031 9.54705 22.4439C9.14911 22.5846 8.7831 22.8029 8.47027 23.0863C8.15744 23.3697 7.90403 23.7124 7.72477 24.0945C7.54551 24.4766 7.44396 24.8906 7.42603 25.3123C7.4081 25.734 7.47414 26.155 7.62032 26.551C7.75553 26.9508 7.96885 27.3198 8.24787 27.6365C8.52689 27.9532 8.86607 28.2113 9.24569 28.3959C9.62531 28.5804 10.0378 28.6876 10.4592 28.7113C10.8806 28.7351 11.3026 28.6749 11.7005 28.5341C12.0985 28.3934 12.4645 28.1751 12.7773 27.8917C13.0901 27.6083 13.3435 27.2656 13.5228 26.8835C13.7021 26.5014 13.8036 26.0874 13.8215 25.6657C13.8395 25.244 13.7734 24.823 13.6273 24.427ZM31.8605 22.303C31.0155 22.303 30.2051 22.6387 29.6076 23.2362C29.0101 23.8336 28.6745 24.644 28.6745 25.489C28.6745 26.334 29.0101 27.1444 29.6076 27.7418C30.2051 28.3393 31.0155 28.675 31.8605 28.675C32.7054 28.675 33.5158 28.3393 34.1133 27.7418C34.7108 27.1444 35.0465 26.334 35.0465 25.489C35.0465 24.644 34.7108 23.8336 34.1133 23.2362C33.5158 22.6387 32.7054 22.303 31.8605 22.303Z" fill="#18ACD3"/>
</g>
<defs>
<clipPath id="clip0_56_13065">
<rect width="42.48" height="33.984" fill="white" transform="matrix(-1 0 0 1 42.4805 0)"/>
</clipPath>
</defs>
</svg>
