<svg width="19" height="19" viewBox="0 0 19 19" fill="none" xmlns="http://www.w3.org/2000/svg">
<circle cx="9.45039" cy="9.45" r="9.45" transform="rotate(90 9.45039 9.45)" fill="#18ACD3"/>
<path fill-rule="evenodd" clip-rule="evenodd" d="M9.48047 13.0112C9.42536 13.0663 9.33602 13.0663 9.28092 13.0112L8.13936 11.8696C8.139 11.8693 8.13864 11.8689 8.13829 11.8685L4.82961 8.55984C4.7745 8.50474 4.7745 8.4154 4.82961 8.36029L5.9742 7.2157C6.02931 7.16059 6.11865 7.16059 6.17376 7.2157L9.38374 10.4257L12.5883 7.22115C12.6434 7.16605 12.7327 7.16605 12.7878 7.22115L13.9294 8.3627C13.9845 8.41781 13.9845 8.50715 13.9294 8.56226L9.48047 13.0112Z" fill="white"/>
</svg>
