<svg width="26" height="26" viewBox="0 0 26 26" fill="none" xmlns="http://www.w3.org/2000/svg">
<path fill-rule="evenodd" clip-rule="evenodd" d="M6.10322 1.41699C4.8604 1.41699 3.66847 1.91057 2.7895 2.7892C1.91053 3.66784 1.41649 4.85958 1.41602 6.10239V18.6016C1.41602 19.8447 1.90984 21.0369 2.78886 21.9159C3.66789 22.795 4.86009 23.2888 6.10322 23.2888H18.6024C19.8452 23.2883 21.037 22.7943 21.9156 21.9153C22.7942 21.0363 23.2878 19.8444 23.2878 18.6016V6.10239C23.2873 4.85989 22.7935 3.66842 21.915 2.78984C21.0364 1.91126 19.8449 1.41747 18.6024 1.41699H6.10322ZM19.9506 6.10959C19.9506 6.46763 19.8084 6.81101 19.5552 7.06419C19.302 7.31736 18.9587 7.45959 18.6006 7.45959C18.2426 7.45959 17.8992 7.31736 17.646 7.06419C17.3928 6.81101 17.2506 6.46763 17.2506 6.10959C17.2506 5.75155 17.3928 5.40817 17.646 5.155C17.8992 4.90182 18.2426 4.75959 18.6006 4.75959C18.9587 4.75959 19.302 4.90182 19.5552 5.155C19.8084 5.40817 19.9506 5.75155 19.9506 6.10959ZM12.3546 8.60799C11.3616 8.60799 10.4093 9.00245 9.70721 9.70458C9.00507 10.4067 8.61062 11.359 8.61062 12.352C8.61062 13.345 9.00507 14.2973 9.70721 14.9994C10.4093 15.7015 11.3616 16.096 12.3546 16.096C13.3476 16.096 14.2999 15.7015 15.002 14.9994C15.7042 14.2973 16.0986 13.345 16.0986 12.352C16.0986 11.359 15.7042 10.4067 15.002 9.70458C14.2999 9.00245 13.3476 8.60799 12.3546 8.60799ZM6.80882 12.352C6.80882 10.8816 7.39291 9.47149 8.43262 8.43179C9.47232 7.39209 10.8825 6.80799 12.3528 6.80799C13.8232 6.80799 15.2333 7.39209 16.273 8.43179C17.3127 9.47149 17.8968 10.8816 17.8968 12.352C17.8968 13.8224 17.3127 15.2325 16.273 16.2722C15.2333 17.3119 13.8232 17.896 12.3528 17.896C10.8825 17.896 9.47232 17.3119 8.43262 16.2722C7.39291 15.2325 6.80882 13.8224 6.80882 12.352Z" fill="white"/>
</svg>
