<svg width="16" height="22" viewBox="0 0 16 22" fill="none" xmlns="http://www.w3.org/2000/svg">
<path d="M7.59654 0C3.42374 0 0 3.41325 0 7.57658C0 9.17709 0.508672 10.668 1.36755 11.894L6.29146 20.406L6.31245 20.4334C6.50675 20.6871 6.69645 20.8873 6.91917 21.0345C7.14189 21.182 7.41837 21.27 7.68973 21.2429C8.23194 21.1886 8.56397 20.8056 8.8791 20.3786L8.896 20.3566L14.3319 11.1045L14.335 11.0986C14.4625 10.8682 14.5567 10.6337 14.6365 10.4054C15.0032 9.50733 15.1919 8.54659 15.1921 7.57658C15.1921 3.41325 11.7693 0 7.59654 0ZM7.59654 4.36352C9.40672 4.36352 10.8196 5.77382 10.8196 7.57632C10.8196 9.37933 9.40672 10.7891 7.59654 10.7891C5.78611 10.7891 4.37248 9.37907 4.37248 7.57632C4.37248 5.77408 5.78637 4.36352 7.59654 4.36352Z" fill="#18ACD3"/>
</svg>
