<svg width="24" height="19" viewBox="0 0 24 19" fill="none" xmlns="http://www.w3.org/2000/svg">
<g clip-path="url(#clip0_56_39079)">
<path d="M11.9989 0.0820312C8.19383 0.0820312 5.10938 3.16648 5.10938 6.9716C5.10938 10.0479 9.6122 15.6547 11.3373 17.6898C11.6867 18.1021 12.3117 18.1021 12.6606 17.6898C14.3857 15.6547 18.8885 10.0479 18.8885 6.9716C18.8885 3.16648 15.8041 0.0820312 11.9989 0.0820312ZM11.9989 9.26813C10.7304 9.26813 9.70242 8.24016 9.70242 6.9716C9.70242 5.70305 10.7304 4.67508 11.9989 4.67508C13.2675 4.67508 14.2955 5.70305 14.2955 6.9716C14.2955 8.24016 13.2675 9.26813 11.9989 9.26813Z" fill="white"/>
</g>
<defs>
<clipPath id="clip0_56_39079">
<rect width="24" height="18.2609" fill="white"/>
</clipPath>
</defs>
</svg>
