<svg width="28" height="43" viewBox="0 0 28 43" fill="none" xmlns="http://www.w3.org/2000/svg">
<path d="M18.2888 28.0981C20.2449 27.1591 23.0617 25.7507 26.8175 26.2202C26.8175 27.1591 26.6506 30.514 25.9568 32.4798C24.5484 36.4703 22.6705 38.4264 19.2277 39.6001C15.7849 40.7738 11.6286 40.3274 9.8383 39.6001C8.04802 38.8728 7.23014 38.2473 7.02148 38.0795C8.07059 36.6233 9.19956 35.3292 10.1513 34.2012C12.2639 31.6973 16.1714 29.1144 18.2888 28.0981Z" fill="white" stroke="white" stroke-width="0.613097" stroke-linejoin="round"/>
<path d="M5.63482 6.86855C5.02459 8.88231 5.05867 11.4957 5.39773 12.6693C2.65911 15.4079 0.518137 20.6503 0.311854 25.1885C0.124067 29.3199 1.38114 32.8044 2.1114 34.0302C1.85058 34.8648 1.57934 36.9253 1.95491 38.4902C2.33049 40.0551 3.88496 41.6461 4.61524 42.2459C5.24083 40.7004 6.10935 39.2797 7.04083 37.9867C8.08993 36.5306 9.2189 35.2364 10.1706 34.1085C12.2832 31.6046 16.1908 29.0217 18.3081 28.0054C20.2642 27.0664 23.081 25.658 26.8368 26.1275C26.8368 25.5015 26.8056 24.0775 26.6804 22.7629C26.4792 20.6503 25.2719 20.7286 24.0982 20.8851C22.9246 21.0416 22.2204 21.1459 19.6383 21.9544C17.0562 22.7629 14.5743 24.388 11.1527 23.1156C8.47815 22.1211 8.371 18.2508 8.84047 16.8163C9.85769 17.7553 12.3615 19.7258 15.9608 19.9461C19.5601 20.1665 22.7159 17.8857 23.7853 16.8163C21.9857 16.8163 17.8387 15.4392 16.5868 14.9384C15.0219 14.3125 13.3064 12.6039 12.992 12.0799C12.7572 11.6887 12.1638 11.6104 11.8247 11.5322C11.8247 11.2974 12.1506 10.5536 12.0723 10.2406C11.9549 9.77111 11.7356 9.30481 11.5008 7.50518C11.2661 5.70554 11.9056 3.98966 12.2833 3.04521C12.5962 2.26276 13.2743 0.828274 13.6134 0.306641C9.23173 1.01085 6.41727 4.28647 5.63482 6.86855Z" fill="#18ACD3" stroke="#18ACD3" stroke-width="0.613097" stroke-linejoin="round"/>
<circle cx="16.8803" cy="25.9819" r="0.704205" fill="#103961" stroke="#103961" stroke-width="0.46947"/>
<path d="M25.7991 28.669C26.3469 28.7907 26.4796 29.732 26.4796 30.1657C26.4796 30.4722 26.4796 30.7788 26.3469 30.9782C26.3469 30.9401 26.1904 30.587 25.9556 30.4686C25.5083 30.243 23.6083 30.6251 22.5911 30.8598C21.7773 31.0476 20.009 31.8248 19.2266 32.19C19.6439 31.7466 20.7915 30.6564 22.0434 29.8426C23.6083 28.8254 25.0949 28.5125 25.7991 28.669Z" fill="#103961" stroke="#103961" stroke-width="0.46947" stroke-linejoin="round"/>
</svg>
