<svg width="20" height="20" viewBox="0 0 20 20" fill="none" xmlns="http://www.w3.org/2000/svg">
<path fill-rule="evenodd" clip-rule="evenodd" d="M8.74972 1.66699C7.62022 1.66709 6.50711 1.9373 5.50327 2.45507C4.49943 2.97285 3.63397 3.72317 2.97909 4.64345C2.32421 5.56373 1.8989 6.62728 1.73865 7.74536C1.5784 8.86344 1.68785 10.0036 2.05787 11.0708C2.4279 12.138 3.04776 13.1012 3.86575 13.8801C4.68375 14.659 5.67614 15.231 6.76015 15.5483C7.84416 15.8657 8.98834 15.9192 10.0972 15.7044C11.2061 15.4896 12.2476 15.0128 13.1347 14.3137L16.1781 17.357C16.3352 17.5088 16.5457 17.5928 16.7642 17.5909C16.9827 17.589 17.1917 17.5013 17.3462 17.3468C17.5007 17.1923 17.5884 16.9833 17.5903 16.7648C17.5922 16.5463 17.5082 16.3358 17.3564 16.1787L14.3131 13.1353C15.1364 12.0908 15.649 10.8357 15.7923 9.51343C15.9356 8.1912 15.7037 6.85534 15.1232 5.65874C14.5428 4.46213 13.6371 3.45312 12.51 2.74718C11.3828 2.04125 10.0797 1.6669 8.74972 1.66699ZM3.33306 8.75033C3.33306 7.31374 3.90374 5.93599 4.91956 4.92016C5.93538 3.90434 7.31313 3.33366 8.74972 3.33366C10.1863 3.33366 11.5641 3.90434 12.5799 4.92016C13.5957 5.93599 14.1664 7.31374 14.1664 8.75033C14.1664 10.1869 13.5957 11.5647 12.5799 12.5805C11.5641 13.5963 10.1863 14.167 8.74972 14.167C7.31313 14.167 5.93538 13.5963 4.91956 12.5805C3.90374 11.5647 3.33306 10.1869 3.33306 8.75033Z" fill="#18ACD3"/>
</svg>
