<svg width="45" height="34" viewBox="0 0 45 34" fill="none" xmlns="http://www.w3.org/2000/svg">
<g clip-path="url(#clip0_56_13053)">
<path d="M22.0489 0.152344C17.4159 0.152344 13.6603 3.9079 13.6603 8.54093C13.6603 12.2865 19.1429 19.1132 21.2433 21.5912C21.6688 22.0932 22.4297 22.0932 22.8545 21.5912C24.955 19.1132 30.4375 12.2865 30.4375 8.54093C30.4375 3.9079 26.6819 0.152344 22.0489 0.152344ZM22.0489 11.3371C20.5043 11.3371 19.2527 10.0855 19.2527 8.54093C19.2527 6.99637 20.5043 5.74473 22.0489 5.74473C23.5935 5.74473 24.8451 6.99637 24.8451 8.54093C24.8451 10.0855 23.5935 11.3371 22.0489 11.3371ZM4.21451 14.5294C3.81917 14.6876 3.48026 14.9605 3.24151 15.3131C3.00275 15.6656 2.87509 16.0816 2.875 16.5074V33.1728C2.875 33.9264 3.63596 34.4417 4.33568 34.1621L13.5272 29.9784V14.4609C12.9386 13.397 12.4573 12.3611 12.1124 11.3704L4.21451 14.5294ZM22.0489 24.0978C21.1122 24.0978 20.2261 23.6863 19.6182 22.9686C18.3093 21.4241 16.9172 19.6651 15.6576 17.8609V29.9778L28.4402 34.2386V17.8616C27.1806 19.6651 25.7892 21.4247 24.4796 22.9693C23.8718 23.6863 22.9856 24.0978 22.0489 24.0978ZM39.7621 10.8817L30.5707 15.0654V34.2393L39.8833 30.5144C40.2787 30.3563 40.6177 30.0834 40.8564 29.7308C41.0952 29.3782 41.2228 28.9622 41.2228 28.5364V11.8711C41.2228 11.1174 40.4619 10.6021 39.7621 10.8817Z" fill="#18ACD3"/>
</g>
<defs>
<clipPath id="clip0_56_13053">
<rect width="44.1" height="33.5543" fill="white"/>
</clipPath>
</defs>
</svg>
