<svg width="21" height="18" viewBox="0 0 21 18" fill="none" xmlns="http://www.w3.org/2000/svg">
<path d="M1 4.05081C1 3.77273 1.15187 3.51686 1.39596 3.38366L5.15371 1.33311C5.66017 1.05675 6.27778 1.42331 6.27778 2.00027V14.6686C6.27778 14.9467 6.12591 15.2026 5.88181 15.3358L2.12407 17.3863C1.61761 17.6627 1 17.2961 1 16.7192V4.05081Z" fill="white"/>
<path d="M15.6113 3.69094C15.6113 3.41287 15.7632 3.15699 16.0073 3.02379L19.765 0.973251C20.2715 0.696884 20.8891 1.06345 20.8891 1.6404V14.3088C20.8891 14.5869 20.7372 14.8427 20.4931 14.9759L16.7354 17.0265C16.2289 17.3028 15.6113 16.9363 15.6113 16.3593V3.69094Z" fill="white"/>
<path d="M14.1113 3.75529C14.1113 3.44401 13.9215 3.1642 13.6323 3.04912L8.81899 1.13393C8.31995 0.935368 7.778 1.30301 7.778 1.8401V14.6042C7.778 14.9154 7.96781 15.1952 8.25703 15.3103L13.0703 17.2255C13.5694 17.4241 14.1113 17.0564 14.1113 16.5193V3.75529Z" fill="white"/>
</svg>
