<svg width="29" height="18" viewBox="0 0 29 18" fill="none" xmlns="http://www.w3.org/2000/svg">
<path d="M10.2272 5.50829C11.3072 3.21629 13.8512 1.80029 15.6992 1.80029C15.1352 3.48029 15.3632 4.88429 15.7592 5.91629C18.7592 6.60029 21.6992 7.80029 21.6992 7.80029C21.6992 7.80029 25.2992 3.00029 27.6992 3.00029L25.2992 10.2003L26.4992 15.0003C24.0992 15.0003 21.6992 11.4003 21.6992 11.4003C21.6992 11.4003 15.6992 13.8003 12.0992 13.8003V16.2003C11.3192 16.2003 9.80722 15.2043 8.82322 13.5243C7.33522 13.2723 6.09922 12.8523 5.05522 12.3723C5.23522 12.1563 5.46322 11.9283 5.76322 11.7603C6.54322 11.2923 7.51522 11.0043 8.49922 10.8003C7.51522 10.6083 6.49522 10.4643 5.39122 10.6203C4.83922 10.6923 4.25122 10.8483 3.69922 11.2323C3.57922 11.3043 3.49522 11.4003 3.41122 11.4603C2.01922 10.5123 1.29922 9.52829 1.29922 9.00029C1.29922 7.95629 5.87122 6.00029 10.2272 5.50829ZM7.29922 9.00029C7.95922 9.00029 8.49922 8.46029 8.49922 7.80029C8.49922 7.51229 8.37922 7.26029 8.22322 7.05629C7.49122 7.20029 6.78322 7.40429 6.13522 7.60829C6.09922 7.66829 6.09922 7.72829 6.09922 7.80029C6.09922 8.46029 6.63922 9.00029 7.29922 9.00029Z" fill="white"/>
</svg>
