<svg width="23" height="19" viewBox="0 0 23 19" fill="none" xmlns="http://www.w3.org/2000/svg">
<g clip-path="url(#clip0_2287_582)">
<path d="M22.2447 15.0837L22.2447 12.0362C22.2431 11.7919 22.15 11.5572 21.9838 11.3783C21.8176 11.1993 21.5904 11.0891 21.347 11.0694C20.971 11.0391 20.62 10.8687 20.3637 10.592C20.1074 10.3152 19.9644 9.9522 19.9631 9.57497C19.9645 9.19785 20.1075 8.835 20.3637 8.5583C20.6199 8.2816 20.9708 8.11122 21.3467 8.08091C21.5901 8.0612 21.8173 7.95099 21.9835 7.77203C22.1496 7.59306 22.2427 7.35833 22.2444 7.11412L22.2447 4.06351C22.2445 3.80599 22.1421 3.55908 21.96 3.37698C21.7779 3.19488 21.531 3.09247 21.2735 3.09223L16.4156 3.09188C16.1152 3.09242 15.8189 3.1625 15.55 3.29663C15.4981 3.32226 15.4411 3.33559 15.3832 3.33559C15.3254 3.33559 15.2683 3.32226 15.2165 3.29663C14.9475 3.16241 14.6511 3.09244 14.3505 3.09222L1.89256 3.09222C1.63503 3.09247 1.38813 3.19488 1.20603 3.37698C1.02393 3.55908 0.921518 3.80599 0.921271 4.06351L0.922998 7.11273C0.924656 7.35695 1.01775 7.59168 1.18393 7.77064C1.35012 7.94961 1.57732 8.05981 1.82074 8.07953C2.19768 8.10788 2.54999 8.27762 2.80706 8.55476C3.06413 8.83189 3.20698 9.19593 3.20697 9.57393C3.20698 9.95193 3.06413 10.316 2.80706 10.5931C2.54998 10.8702 2.19768 11.04 1.82074 11.0683C1.57732 11.088 1.35012 11.1982 1.18393 11.3772C1.01775 11.5562 0.924656 11.7909 0.922998 12.0351V15.0826C0.923246 15.3401 1.02566 15.5871 1.20776 15.7692C1.38986 15.9513 1.63676 16.0537 1.89429 16.0539L14.3522 16.0539C14.6526 16.0537 14.9489 15.9838 15.2178 15.8498C15.2698 15.824 15.327 15.8106 15.385 15.8106C15.4429 15.8106 15.5001 15.824 15.5521 15.8498C15.8209 15.9839 16.117 16.0538 16.4174 16.0543L21.2752 16.0539C21.5322 16.0532 21.7785 15.9507 21.9602 15.7689C22.1419 15.5871 22.2442 15.3407 22.2447 15.0837ZM15.3832 6.17459C15.2806 6.1746 15.179 6.1544 15.0842 6.11514C14.9894 6.07587 14.9032 6.01832 14.8307 5.94576C14.7581 5.87319 14.7006 5.78705 14.6613 5.69224C14.622 5.59744 14.6018 5.49582 14.6018 5.39321V4.59836C14.6049 4.39315 14.6886 4.19738 14.8348 4.05335C14.981 3.90933 15.178 3.82861 15.3832 3.82866C15.5885 3.8287 15.7854 3.9095 15.9316 4.05359C16.0777 4.19768 16.1613 4.39349 16.1643 4.59871L16.1646 5.39321C16.1646 5.49582 16.1444 5.59744 16.1052 5.69225C16.0659 5.78705 16.0083 5.8732 15.9358 5.94576C15.8632 6.01832 15.7771 6.07587 15.6823 6.11514C15.5875 6.1544 15.4858 6.1746 15.3832 6.17459ZM15.3832 9.21311C15.1761 9.21304 14.9775 9.13073 14.831 8.98427C14.6846 8.83781 14.6023 8.63919 14.6022 8.43207V7.67244C14.6022 7.46521 14.6845 7.26646 14.8311 7.11992C14.9776 6.97338 15.1763 6.89106 15.3836 6.89106C15.5908 6.89106 15.7896 6.97338 15.9361 7.11992C16.0826 7.26646 16.165 7.46521 16.165 7.67244L16.165 8.43207C16.1651 8.53486 16.1451 8.63668 16.1058 8.73169C16.0666 8.8267 16.009 8.91304 15.9364 8.98576C15.8637 9.05847 15.7774 9.11614 15.6824 9.15545C15.5875 9.19475 15.4857 9.21494 15.3829 9.21483L15.3832 9.21311ZM15.3832 12.2516C15.2806 12.2516 15.179 12.2314 15.0842 12.1922C14.9894 12.1529 14.9032 12.0953 14.8307 12.0228C14.7581 11.9502 14.7006 11.8641 14.6613 11.7693C14.622 11.6745 14.6018 11.5729 14.6018 11.4702V10.7106C14.6049 10.5054 14.6886 10.3096 14.8348 10.1656C14.981 10.0216 15.178 9.94086 15.3832 9.94091C15.5885 9.94096 15.7854 10.0218 15.9316 10.1658C16.0777 10.3099 16.1613 10.5057 16.1643 10.711V11.4706C16.1647 11.5734 16.1448 11.6754 16.1057 11.7705C16.0667 11.8656 16.0092 11.9521 15.9367 12.025C15.8641 12.0979 15.7778 12.1557 15.6829 12.1952C15.5879 12.2347 15.4861 12.255 15.3832 12.2551L15.3832 12.2516ZM15.3794 15.3236C15.2768 15.3236 15.1752 15.3034 15.0804 15.2642C14.9856 15.2249 14.8994 15.1674 14.8269 15.0948C14.7543 15.0222 14.6968 14.9361 14.6575 14.8413C14.6182 14.7465 14.598 14.6449 14.598 14.5422L14.6001 13.7502C14.5989 13.6466 14.6182 13.5439 14.6571 13.4479C14.6959 13.3519 14.7534 13.2646 14.8263 13.191C14.8991 13.1174 14.9859 13.0591 15.0815 13.0193C15.1771 12.9796 15.2797 12.9593 15.3833 12.9595C15.4868 12.9598 15.5893 12.9806 15.6847 13.0208C15.7801 13.061 15.8666 13.1198 15.9391 13.1937C16.0116 13.2676 16.0687 13.3552 16.1071 13.4514C16.1454 13.5476 16.1643 13.6504 16.1625 13.754L16.1612 14.546C16.1611 14.6487 16.1409 14.7503 16.1016 14.8451C16.0623 14.9398 16.0047 15.026 15.9321 15.0985C15.8595 15.171 15.7733 15.2285 15.6785 15.2678C15.5837 15.307 15.482 15.3271 15.3794 15.3271L15.3794 15.3236Z" fill="#F3B237"/>
</g>
<defs>
<clipPath id="clip0_2287_582">
<rect width="22.1667" height="19" fill="white"/>
</clipPath>
</defs>
</svg>
