<svg width="47" height="47" viewBox="0 0 47 47" fill="none" xmlns="http://www.w3.org/2000/svg">
<path d="M23.0416 3.8396C15.3616 3.8396 7.68164 4.7996 7.68164 11.5196V29.7596C7.68164 33.4652 10.696 36.4796 14.4016 36.4796L12.1936 38.6876C12.061 38.8229 11.9713 38.9945 11.936 39.1808C11.9007 39.367 11.9213 39.5595 11.9952 39.734C12.0691 39.9085 12.1931 40.0573 12.3514 40.1615C12.5097 40.2657 12.6953 40.3207 12.8848 40.3196H14.9776C15.2272 40.3196 15.4768 40.2236 15.6496 40.0316L19.2016 36.4796H26.8816L30.4336 40.0316C30.6064 40.2044 30.856 40.3196 31.1056 40.3196H33.1984C34.0624 40.3196 34.4848 39.2828 33.8704 38.6876L31.6816 36.4796C35.3872 36.4796 38.4016 33.4652 38.4016 29.7596V11.5196C38.4016 4.7996 30.7216 3.8396 23.0416 3.8396ZM14.4016 32.6396C12.808 32.6396 11.5216 31.3532 11.5216 29.7596C11.5216 28.166 12.808 26.8796 14.4016 26.8796C15.9952 26.8796 17.2816 28.166 17.2816 29.7596C17.2816 31.3532 15.9952 32.6396 14.4016 32.6396ZM21.1216 19.1996H11.5216V11.5196H21.1216V19.1996ZM31.6816 32.6396C30.088 32.6396 28.8016 31.3532 28.8016 29.7596C28.8016 28.166 30.088 26.8796 31.6816 26.8796C33.2752 26.8796 34.5616 28.166 34.5616 29.7596C34.5616 31.3532 33.2752 32.6396 31.6816 32.6396ZM34.5616 19.1996H24.9616V11.5196H34.5616V19.1996Z" fill="#18ACD3"/>
</svg>
