<svg width="26" height="26" viewBox="0 0 26 26" fill="none" xmlns="http://www.w3.org/2000/svg">
<g clip-path="url(#clip0_2400_62829)">
<path d="M10.08 16.3803L16.6194 12.6003L10.08 8.82027V16.3803ZM24.6456 6.51447C24.8094 7.10667 24.9228 7.90047 24.9984 8.90847C25.0866 9.91647 25.1244 10.7859 25.1244 11.5419L25.2 12.6003C25.2 15.3597 24.9984 17.3883 24.6456 18.6861C24.3306 19.8201 23.5998 20.5509 22.4658 20.8659C21.8736 21.0297 20.79 21.1431 19.1268 21.2187C17.4888 21.3069 15.9894 21.3447 14.6034 21.3447L12.6 21.4203C7.3206 21.4203 4.032 21.2187 2.7342 20.8659C1.6002 20.5509 0.8694 19.8201 0.5544 18.6861C0.3906 18.0939 0.2772 17.3001 0.2016 16.2921C0.1134 15.2841 0.0755999 14.4147 0.0755999 13.6587L0 12.6003C0 9.84087 0.2016 7.81227 0.5544 6.51447C0.8694 5.38047 1.6002 4.64967 2.7342 4.33467C3.3264 4.17087 4.41 4.05747 6.0732 3.98187C7.7112 3.89367 9.2106 3.85587 10.5966 3.85587L12.6 3.78027C17.8794 3.78027 21.168 3.98187 22.4658 4.33467C23.5998 4.64967 24.3306 5.38047 24.6456 6.51447Z" fill="white"/>
</g>
<defs>
<clipPath id="clip0_2400_62829">
<rect width="25.2" height="25.2" fill="white"/>
</clipPath>
</defs>
</svg>
