<svg width="109" height="19" viewBox="0 0 109 19" fill="none" xmlns="http://www.w3.org/2000/svg">
<path fill-rule="evenodd" clip-rule="evenodd" d="M87.4314 15.2669C87.8299 12.7051 88.2191 9.35818 88.2191 7.55623C88.2191 6.63851 88.1706 5.72909 88.125 4.87524C87.9988 2.51038 87.8953 0.571765 88.9089 0.063408C90.2883 -0.628494 95.707 4.52591 97.7762 6.60162C98.8827 7.71158 101.043 10.5965 102.717 13.5972C104.521 14.7156 106.08 15.5345 107.534 15.5345H108.884V18.2345H107.534C106.512 18.2345 105.511 17.9874 104.557 17.6148C104.594 17.7261 104.628 17.8364 104.661 17.9455C104.661 17.9455 101.226 16.551 97.1858 16.551C93.1453 16.551 86.8412 18.3505 86.8412 18.3505C86.8545 18.3037 86.8683 18.2528 86.8823 18.1981C86.6903 18.2218 86.4951 18.2345 86.2972 18.2345C85.1627 18.2345 84.0667 17.8155 83.1018 17.3192C82.1402 16.8247 81.1682 16.1767 80.274 15.5805L80.2739 15.5805L80.2392 15.5573C79.3052 14.9346 78.4521 14.3679 77.6394 13.9499C76.8176 13.5273 76.1779 13.3337 75.6788 13.3337C75.1797 13.3337 74.5401 13.5273 73.7182 13.9499C72.9056 14.3679 72.0525 14.9346 71.1185 15.5573L71.0838 15.5805L71.0836 15.5805C70.1895 16.1767 69.2175 16.8247 68.2559 17.3192C67.291 17.8155 66.1949 18.2345 65.0604 18.2345C63.9259 18.2345 62.8298 17.8155 61.865 17.3192C60.9034 16.8247 59.9314 16.1767 59.0372 15.5805L59.0024 15.5573C58.0683 14.9346 57.2153 14.3679 56.4026 13.9499C55.5807 13.5273 54.9411 13.3337 54.442 13.3337C53.9429 13.3337 53.3033 13.5273 52.4814 13.9499C51.6688 14.3679 50.8157 14.9346 49.8817 15.5573L49.8469 15.5805C48.9527 16.1767 47.9807 16.8247 47.0191 17.3192C46.0542 17.8155 44.9581 18.2345 43.8236 18.2345C42.6749 18.2345 41.6201 17.8065 40.7114 17.2953C39.8169 16.7922 38.9405 16.1349 38.1498 15.5418L38.1128 15.5141C37.2795 14.8891 36.5357 14.3339 35.8106 13.926C35.0857 13.5183 34.507 13.3337 34.022 13.3337C33.5229 13.3337 32.8833 13.5273 32.0614 13.9499C31.2488 14.3679 30.3957 14.9346 29.4617 15.5573L29.4268 15.5805L29.4268 15.5806C28.5326 16.1767 27.5607 16.8247 26.5991 17.3192C25.6342 17.8155 24.5381 18.2345 23.4036 18.2345C22.2691 18.2345 21.173 17.8155 20.2082 17.3192C19.2466 16.8247 18.2746 16.1767 17.3804 15.5806L17.3804 15.5806L17.3456 15.5573C16.4115 14.9346 15.5585 14.3679 14.7458 13.9499C13.9239 13.5273 13.2843 13.3337 12.7852 13.3337C12.2997 13.3337 11.7194 13.518 10.9557 13.9346C10.3447 14.2679 9.72439 14.6859 9.01425 15.1644L9.01422 15.1644L9.01416 15.1645C8.82593 15.2913 8.6314 15.4224 8.42905 15.5573C6.59331 16.7812 4.24705 18.2345 1.35 18.2345H0V15.5345H1.35C3.35376 15.5345 5.0915 14.5374 6.93136 13.3108C7.10147 13.1974 7.27448 13.0807 7.44954 12.9626L7.44958 12.9625C8.17183 12.4753 8.92909 11.9645 9.66283 11.5642C10.5839 11.0619 11.6371 10.6337 12.7852 10.6337C13.9197 10.6337 15.0158 11.0527 15.9807 11.5489C16.9423 12.0434 17.9142 12.6914 18.8084 13.2876L18.8433 13.3108C19.7773 13.9335 20.6304 14.5002 21.443 14.9182C22.2649 15.3409 22.9045 15.5345 23.4036 15.5345C23.9027 15.5345 24.5423 15.3409 25.3642 14.9182C26.1769 14.5002 27.0299 13.9335 27.964 13.3108L27.9988 13.2876C28.893 12.6914 29.865 12.0434 30.8266 11.5489C31.7914 11.0527 32.8875 10.6337 34.022 10.6337C35.1707 10.6337 36.2255 11.0616 37.1343 11.5728C38.0288 12.0759 38.9051 12.7332 39.6958 13.3263L39.7328 13.3541C40.5661 13.979 41.31 14.5342 42.0351 14.9421C42.7599 15.3498 43.3387 15.5345 43.8236 15.5345C44.3227 15.5345 44.9623 15.3409 45.7842 14.9182C46.5969 14.5002 47.4499 13.9335 48.384 13.3108L48.4188 13.2876L48.4189 13.2875C49.3131 12.6914 50.285 12.0434 51.2466 11.5489C52.2114 11.0527 53.3075 10.6337 54.442 10.6337C55.5765 10.6337 56.6726 11.0527 57.6375 11.5489C58.5991 12.0434 59.5711 12.6914 60.4653 13.2876L60.5001 13.3108C61.4341 13.9335 62.2872 14.5002 63.0998 14.9182C63.9217 15.3409 64.5613 15.5345 65.0604 15.5345C65.5595 15.5345 66.1992 15.3409 67.021 14.9182C67.8337 14.5002 68.6867 13.9335 69.6208 13.3108L69.6557 13.2875L69.6558 13.2874C70.55 12.6913 71.5219 12.0434 72.4834 11.5489C73.4483 11.0527 74.5443 10.6337 75.6788 10.6337C76.8133 10.6337 77.9094 11.0527 78.8743 11.5489C79.8358 12.0434 80.8077 12.6913 81.7018 13.2874L81.702 13.2875L81.7369 13.3108C82.6709 13.9335 83.524 14.5002 84.3366 14.9182C85.1585 15.3409 85.7981 15.5345 86.2972 15.5345C86.6266 15.5345 86.9992 15.4493 87.4314 15.2669Z" fill="#103961"/>
</svg>
