<svg width="375" height="55" viewBox="0 0 375 55" fill="none" xmlns="http://www.w3.org/2000/svg">
<g clip-path="url(#clip0_56_13579)">
<path opacity="0.85" d="M39.0139 13.9924C21.4727 13.9924 3.69788 17.421 -3 19.5026V52H390V13.9924C380.736 11.5435 361.634 6.71896 333.242 7.01284C297.752 7.38019 220.248 24.0945 178.234 24.0945C143.388 24.0945 67.8496 13.9924 39.0139 13.9924Z" fill="#B9EDFC"/>
<path d="M51.41 43.3122C33.7954 43.3122 16.4679 31.9606 -0.128906 31.9606L-0.128861 54.5333H375.648V31.9606C355.815 31.9606 347.465 43.0512 316.802 43.0512C286.14 43.0512 279.877 31.8301 254.434 31.8301C225.207 31.8301 215.29 43.0512 187.629 43.0512C159.968 43.0512 143.658 31.8301 119.65 31.8301C99.2954 31.8301 82.2028 43.3122 51.41 43.3122Z" fill="url(#paint0_linear_56_13579)"/>
</g>
<defs>
<linearGradient id="paint0_linear_56_13579" x1="28.3153" y1="33.2223" x2="357.803" y2="42.1186" gradientUnits="userSpaceOnUse">
<stop offset="0.0879629" stop-color="#0D57B4"/>
<stop offset="0.920822" stop-color="#05A9DC"/>
</linearGradient>
<clipPath id="clip0_56_13579">
<rect width="375" height="55" fill="white"/>
</clipPath>
</defs>
</svg>
